# xmcd
#
# Track frame offsets:
#	150
#	3939
#	22310
#	43132
#	68276
#	90608
#	110452
#	133791
#	153949
#	160298
#	172180
#	187312
#	202795
#	221074
#	239506
#	245538
#
# Disc length: 3605 seconds
#
# Revision: 1
# Processed by: cddbd v1.4PL0 Copyright (c) Steve Scherf et al.
# Submitted via: audiograbber 1.81.02
#
DISCID=e10e1310
DTITLE=india arie - acoustic soul
DYEAR=2001
DGENRE=Blues
TTITLE0=Intro
TTITLE1=Video
TTITLE2=Promises
TTITLE3=Brown Skin
TTITLE4=Strength, Courage and Wisdom
TTITLE5=Nature
TTITLE6=Back to the Middle
TTITLE7=Radey for Love
TTITLE8=Interlude
TTITLE9=Always In My Head
TTITLE10=I See God In You
TTITLE11=Simple
TTITLE12=Part of My Life
TTITLE13=Beautiful
TTITLE14=Outro
TTITLE15=Wonderful (Stevie Wonder Dedication)
EXTD=
EXTT0=
EXTT1=
EXTT2=
EXTT3=
EXTT4=
EXTT5=
EXTT6=
EXTT7=
EXTT8=
EXTT9=
EXTT10=
EXTT11=
EXTT12=
EXTT13=
EXTT14=
EXTT15=
PLAYORDER=
